<svg version="1" xmlns="http://www.w3.org/2000/svg" width="682.667" height="682.667" viewBox="0 0 512.000000 512.000000"><path d="M232.5.6c-1.6.2-8 1.1-14.2 2C176.1 8.3 130.8 28.1 95.5 56 85.2 64.1 64.1 85.2 56 95.5c-22.7 28.6-40.5 64.9-49 99.7C1.5 217.5.5 227.1.5 256s1 38.5 6.5 60.8c8.5 34.8 26.3 71.1 49 99.7 8.1 10.3 29.2 31.4 39.5 39.5 28.8 22.8 64.6 40.4 99.7 49 22.2 5.5 31.8 6.5 60.8 6.5 28.9 0 38.5-1 60.8-6.5 34.8-8.5 71.1-26.3 99.7-49 10.3-8.1 31.4-29.2 39.5-39.5 22.7-28.6 40.5-64.9 49-99.7 5.5-22.3 6.5-31.9 6.5-60.8s-1-38.5-6.5-60.8c-8.5-34.8-26.3-71.1-49-99.7-8.1-10.3-29.2-31.4-39.5-39.5-34.9-27.6-77.7-46.4-122-53.6C285 .9 240-.4 232.5.6zm93.4 134.6c9.7 3.6 15 17.6 13 33.9-1 8.5-5 31.7-9.3 54.4-1.8 9.9-3.3 18.1-3.1 18.3.5.6 21.6-17.5 30.9-26.6 13-12.8 20.6-22.4 25.6-32.5 5.8-11.8 6.9-21.2 3.8-33.6-.4-1.9 11.7-8.4 22.2-11.8 7.5-2.5 10-2.8 21-2.8 12 0 12.7.1 17.9 3 6 3.3 10.4 9 12.2 16 .6 2.2.9 8.3.7 13.5-.4 8-.9 10.6-3.6 16.4-7.5 16.1-24.9 33-49.5 48.2-5.1 3.1-9.4 5.8-9.6 6-.8.7 12.3 37.3 18.5 51.8 13.1 30.5 26.9 51.8 40.7 62.7l4.8 3.8-4.3 3.1c-14.7 10.7-37.6 16-53.6 12.6-18.4-3.9-29.8-14.1-39.3-35.4-2.3-5-15.5-40.9-24.1-65.4l-1-2.8-10.1 5.5-10.2 5.4-2.2 13.8c-1.2 7.6-2.2 17.4-2.2 21.8-.1 14.9 2.7 30.7 7 40 2.6 5.5 2.8 5.2-9.1 11.3-10.6 5.5-15.7 6.7-29 6.7-10.3 0-12.1-.3-17-2.6-9-4.2-14-10.4-17.7-21.8-2-6.4-2.8-27.6-1.4-40.2 1.7-15 9.4-64.4 14.5-92.9l4.4-24.5-8.4-16.7c-4.6-9.2-8.4-17-8.4-17.2 0-.8 19.2-11.2 26.5-14.4 17.9-7.8 39.4-10.8 49.4-7zm-114 2.3c9.5 5.2 14.3 14.1 14.3 26.3 0 8.9-1.8 14.5-6.7 21.7l-3.4 5.1-5.6 45.4c-6.9 56.1-7 56.7-9.5 66.5-9.7 36.7-33.9 63.2-67 73.7-6.5 2-9.5 2.3-22.5 2.3-16.9-.1-23.3-1.3-35.3-7-8.7-4.1-17.6-12.2-21.8-19.8-2.7-4.9-2.9-5.9-2.9-16.7 0-9.7.3-12.2 2.2-16.2 3-6.6 10.5-14.3 17.2-17.5 4.9-2.5 6.7-2.8 15.1-2.8 8.6 0 10.1.3 16.1 3.3 11 5.3 21.9 18 26 30.3 1.8 5.2 2.5 5.4 6.7 2l4-3.1-2.9-9.2c-4.2-13.2-6.2-25.9-5.5-33.8 1-10 10.3-54.8 16.1-77.1l.6-2.6-15.8-.6c-57.7-2.2-75.1-17.7-69.2-61.4 1.5-11.8 1.3-11.4 5.7-9.6 18.4 7.8 69.7 18.3 89.6 18.3h6.3l4.6-6c8.3-10.6 18.1-15.3 30.7-14.7 6 .3 8.7.9 12.9 3.2z"/></svg>